<svg xmlns="http://www.w3.org/2000/svg" viewBox="0 0 180 180" fill="none">
  <rect width="180" height="180" rx="40" fill="#1DB954"/>
  <circle cx="90" cy="90" r="52" fill="#191414" opacity="0.1"/>
  <path d="M90 45C66.804 45 48 63.804 48 87C48 110.196 66.804 129 90 129C113.196 129 132 110.196 132 87C132 63.804 113.196 45 90 45ZM107.25 107.25C106.95 108.3 106.05 108.75 105.3 108.3C93.75 101.25 78.75 99.75 63.75 103.5C63 103.5 62.25 102.75 62.25 102C62.25 101.25 62.7 100.5 63.45 100.5C79.35 96.6 95.25 98.25 107.85 105.75C108.6 106.2 108.75 107.1 107.25 107.25ZM112.5 97.5C112.2 98.55 111.15 99.15 110.1 98.7C96.75 90.75 75.75 88.5 62.25 93C61.05 93.45 60 92.55 60 91.5C60 90.6 60.45 89.7 61.5 89.4C76.5 84.6 99.15 86.85 113.85 95.25C114.9 95.7 115.5 96.75 112.5 97.5ZM112.95 87.45C97.5 78.75 69 77.7 57 81C55.35 81.6 54 80.1 54 78.6C54 77.25 54.75 76.05 56.25 75.6C70.5 71.7 101.25 72.9 119.25 82.8C120.75 83.85 120.75 85.65 119.55 87.45C118.35 88.65 116.55 89.55 112.95 87.45Z" fill="white"/>
  <circle cx="90" cy="87" r="3" fill="white" opacity="0.5"/>
</svg>
