<svg xmlns="http://www.w3.org/2000/svg" viewBox="0 0 48 48" fill="none">
  <rect width="48" height="48" rx="12" fill="#1DB954"/>
  <circle cx="24" cy="24" r="14" fill="#191414" opacity="0.2"/>
  <path d="M24 12C17.373 12 12 17.373 12 24C12 30.627 17.373 36 24 36C30.627 36 36 30.627 36 24C36 17.373 30.627 12 24 12ZM28.8 28.8C28.65 29.1 28.2 29.25 27.9 29.1C24.75 27.3 20.7 26.85 16.8 27.75C16.5 27.75 16.2 27.6 16.2 27.3C16.2 27 16.35 26.7 16.65 26.7C20.85 25.8 25.2 26.25 28.65 28.2C28.95 28.35 29.1 28.65 28.8 28.8ZM30.3 25.8C30.15 26.1 29.7 26.25 29.4 26.1C25.8 24 20.55 23.4 16.95 24.45C16.65 24.6 16.2 24.3 16.2 24C16.2 23.7 16.35 23.4 16.65 23.4C20.7 22.35 26.4 22.95 30.45 25.2C30.6 25.35 30.75 25.65 30.3 25.8ZM30.45 22.65C26.1 20.25 19.8 20.1 16.5 21C16.05 21.15 15.75 20.85 15.75 20.4C15.75 20.1 15.9 19.8 16.35 19.65C20.1 18.6 26.85 18.9 31.65 21.6C32.1 21.9 32.1 22.35 31.95 22.65C31.8 22.95 31.35 23.1 30.45 22.65Z" fill="white"/>
</svg>
