<svg xmlns="http://www.w3.org/2000/svg" viewBox="0 0 32 32" fill="none">
  <rect width="32" height="32" rx="8" fill="#1DB954"/>
  <circle cx="16" cy="16" r="9" fill="#191414" opacity="0.15"/>
  <path d="M16 8C12.134 8 9 11.134 9 15C9 18.866 12.134 22 16 22C19.866 22 23 18.866 23 15C23 11.134 19.866 8 16 8ZM19 19C18.9 19.3 18.6 19.5 18.3 19.35C15.3 17.7 11.7 17.3 8.4 18.15C8.1 18.15 7.8 18 7.8 17.7C7.8 17.4 7.95 17.1 8.25 17.1C11.85 16.2 15.6 16.65 18.9 18.45C19.2 18.6 19.35 18.9 19 19ZM20.25 17C20.1 17.3 19.65 17.45 19.35 17.25C16.05 15.25 11.25 14.7 8.25 15.75C7.95 15.9 7.5 15.6 7.5 15.3C7.5 15 7.65 14.7 7.95 14.7C11.4 13.65 16.65 14.25 20.4 16.5C20.7 16.65 20.85 17.1 20.25 17ZM20.4 14.85C16.5 12.75 10.2 12.6 7.5 13.5C7.05 13.65 6.75 13.35 6.75 12.9C6.75 12.6 6.9 12.3 7.35 12.15C10.5 11.1 17.25 11.4 21.75 13.8C22.2 14.1 22.2 14.55 22.05 14.85C21.9 15.15 21.45 15.3 20.4 14.85Z" fill="white"/>
</svg>
