<svg xmlns="http://www.w3.org/2000/svg" viewBox="0 0 16 16" fill="none">
  <rect width="16" height="16" rx="4" fill="#1DB954"/>
  <path d="M8 4C6.067 4 4.5 5.567 4.5 7.5C4.5 9.433 6.067 11 8 11C9.933 11 11.5 9.433 11.5 7.5C11.5 5.567 9.933 4 8 4ZM9.5 9.5C9.45 9.65 9.25 9.75 9.1 9.65C7.65 8.85 5.85 8.65 4.2 9.15C4.05 9.15 3.9 9.05 3.9 8.9C3.9 8.75 4 8.6 4.15 8.6C6 8.1 7.95 8.3 9.55 9.2C9.65 9.25 9.75 9.45 9.5 9.5ZM10.05 8.6C9.95 8.75 9.75 8.85 9.6 8.75C7.9 7.75 5.55 7.5 4.05 8.05C3.9 8.1 3.75 7.95 3.75 7.8C3.75 7.65 3.85 7.5 4 7.5C5.7 6.95 8.25 7.2 10.15 8.3C10.3 8.35 10.4 8.5 10.05 8.6ZM10.15 7.55C8.05 6.35 5.1 6.25 3.75 6.75C3.55 6.85 3.4 6.7 3.4 6.5C3.4 6.35 3.5 6.2 3.65 6.15C5.25 5.6 8.45 5.75 10.75 7.1C10.95 7.25 10.95 7.45 10.85 7.55C10.75 7.65 10.55 7.75 10.15 7.55Z" fill="white"/>
</svg>
